<svg width="18" height="18" viewBox="0 0 18 18" fill="none" xmlns="http://www.w3.org/2000/svg">
<path d="M3.43994 3.36875C3.43994 2.87169 3.84289 2.46875 4.33994 2.46875H11.3285C12.3226 2.46875 13.1285 3.27464 13.1285 4.26875V13.8588C13.1285 14.3559 12.7255 14.7588 12.2285 14.7588H4.33994C3.84289 14.7588 3.43994 14.3559 3.43994 13.8588V3.36875Z" fill="#C6C6C6"/>
<path d="M10.7148 8.87952L4.70761 8.87952" stroke="#555555" stroke-width="0.75" stroke-linecap="round"/>
<path d="M10.7148 5.95959L4.70761 5.95959" stroke="#555555" stroke-width="0.75" stroke-linecap="round"/>
<path d="M10.7148 12.0059L4.70761 12.0059" stroke="#555555" stroke-width="0.75" stroke-linecap="round"/>
<path d="M12.8716 15.4998H4.03224C3.21378 15.4998 2.55028 14.8363 2.55028 14.0178" stroke="#555555" stroke-width="0.771429" stroke-linecap="round"/>
<path d="M2.55025 11.7941V4.49629C2.55025 3.50218 3.35614 2.69629 4.35025 2.69629H11.0715C12.0657 2.69629 12.8715 3.50218 12.8715 4.49629V13.9598C12.8715 14.6036 13.3208 15.1602 13.9502 15.2959" stroke="#555555" stroke-width="0.75" stroke-linecap="round"/>
<path d="M14.3171 9.98975C14.7773 9.98975 15.1504 10.3628 15.1504 10.823V13.3872C15.1504 14.554 14.2045 15.4998 13.0377 15.4998H11.5672" stroke="#555555" stroke-width="0.75" stroke-linecap="round"/>
</svg>
