<svg width="20" height="20" viewBox="0 0 20 20" fill="none" xmlns="http://www.w3.org/2000/svg">
<path d="M10 3.33301C13.6819 3.33301 16.667 6.3181 16.667 10C16.667 13.6819 13.6819 16.667 10 16.667C9.11172 16.667 8.26593 16.4935 7.49316 16.1797C7.39437 16.1396 7.27697 16.0903 7.16016 16.0537L7.04492 16.0215L6.86328 15.9912C6.80423 15.9847 6.7448 15.9815 6.68066 15.9814C6.52608 15.9814 6.36918 16.0102 6.24902 16.0303L3.51367 16.4854L3.96973 13.751C3.97972 13.691 3.99226 13.6221 4.00195 13.5488L4.01855 13.3193L4.00879 13.1367C4.00222 13.0774 3.99262 13.018 3.97852 12.9551C3.94431 12.8027 3.87374 12.6384 3.82031 12.5068C3.50648 11.7341 3.33301 10.8883 3.33301 10C3.33301 6.3181 6.3181 3.33301 10 3.33301Z" fill="#43D6FF" stroke="#43D6FF" stroke-width="1.66667" stroke-linecap="round" stroke-linejoin="round"/>
<path d="M6.25016 10H6.2585M10.0002 10H10.0085M13.7502 10H13.7585M6.66683 10C6.66683 10.2302 6.48028 10.4167 6.25016 10.4167C6.02004 10.4167 5.8335 10.2302 5.8335 10C5.8335 9.76992 6.02004 9.58337 6.25016 9.58337C6.48028 9.58337 6.66683 9.76992 6.66683 10ZM10.4168 10C10.4168 10.2302 10.2303 10.4167 10.0002 10.4167C9.77004 10.4167 9.5835 10.2302 9.5835 10C9.5835 9.76992 9.77004 9.58337 10.0002 9.58337C10.2303 9.58337 10.4168 9.76992 10.4168 10ZM14.1668 10C14.1668 10.2302 13.9803 10.4167 13.7502 10.4167C13.52 10.4167 13.3335 10.2302 13.3335 10C13.3335 9.76992 13.52 9.58337 13.7502 9.58337C13.9803 9.58337 14.1668 9.76992 14.1668 10Z" stroke="white" stroke-width="1.66667" stroke-linecap="round" stroke-linejoin="round"/>
</svg>
